# xmcd CD database file
#
# Track frame offsets:
#	150
#	12815
#	28862
#	47107
#	64375
#	80715
#	96530
#	115552
#	133187
#	162607
#	178045
#	193309
#	211480
#	229290
#	248080
#	263835
#	285532
#	303402
#	325110
#
# Disc length: 4554 seconds
#
# Revision: 6
# Processed by: cddbd v1.5.2PL0 Copyright (c) Steve Scherf et al.
# Submitted via: CDex 1.70beta2
#
DISCID=1f11c813
DTITLE=Various Artist - Summer Sunsation 12 - Disk 1
DYEAR=1997
DGENRE=GZSZ
TTITLE0=Bellini - Samba De Janeiro
TTITLE1=Sash feat. Rodriguez - Ecuador
TTITLE2=C-Block - Time is Ticking Away
TTITLE3=Blümchen - Verrückte Jungs
TTITLE4=Disco Citizens - Footprint
TTITLE5=Just Friends - One Of Us
TTITLE6=Charly Lownoise and Mental Theo - Just Can't Get Enough
TTITLE7=Dr. Motte And WestBam - Sunshine
TTITLE8=DJ Quicksilver - Synphonica
TTITLE9=Porn Kings - Amour
TTITLE10=SM-Trax feat. Sweet Pussy Pauline - Climb On Top
TTITLE11=Chicane - Sunstroke
TTITLE12=RMB - Break The Silence
TTITLE13=Sabrina Setlur - Glaubst Du mir?
TTITLE14=DJ The Crow - Piece Of Mine
TTITLE15=Club Latine - El Venao
TTITLE16=Black Attack - Bang Bang
TTITLE17=DJ Tequila - Pais Tropical
TTITLE18=Brooklyn Bounce - Take A Ride
EXTD=YEAR: 1997
EXTT0=
EXTT1=
EXTT2=
EXTT3=
EXTT4=
EXTT5=
EXTT6=
EXTT7=
EXTT8=
EXTT9=
EXTT10=
EXTT11=
EXTT12=
EXTT13=
EXTT14=
EXTT15=
EXTT16=
EXTT17=
EXTT18=
PLAYORDER=
